<svg width="1702" height="1398" viewBox="0 0 1702 1398" fill="none" xmlns="http://www.w3.org/2000/svg">
<path d="M706.867 1243.15C684.507 1260.46 623.197 1306.63 570.542 1398.23H904.502L874.929 1303.02C871.683 1293.64 864.47 1277.41 866.634 1248.2C861.465 1258.3 838.431 1277.56 787.652 1273.81C769.259 1271.64 749.063 1263.35 728.506 1243.15H706.867Z" fill="#802B2B" stroke="black"/>
<path fill-rule="evenodd" clip-rule="evenodd" d="M564.45 1245.88C577.053 1259.92 595.058 1281.89 597.218 1340.58C599.816 1331.62 693.88 1237.61 707.45 1237.61H708.707H732.143C737.805 1248.42 754.278 1260.78 792.884 1267.47C835.266 1270.26 929.915 1232.45 969.456 1058.93C976.672 1053.68 988.644 1037.78 999.468 1018.59C1001.16 1015.59 1002.37 1013.31 1003.19 1011.61C1019.79 993.273 1048.63 956.236 1055.56 927.075C1080.65 901.983 1128.84 836.356 1144.48 796.235C1157.79 878.109 1199.48 1059.94 1219.53 1139.52C1226.94 1186.35 1237.66 1241.26 1263.21 1372.15C1264.82 1380.39 1266.49 1388.93 1268.22 1397.78H1389.76H1701.69C1692.41 1369.05 1673.86 1310.52 1673.86 1306.28C1667.48 1277.03 1661.5 1249.23 1655.76 1222.61C1626.44 1086.44 1603.69 980.777 1568.6 865.479C1550.15 759.073 1495.47 518.591 1446.55 405.927C1444.37 401.284 1441.87 395.632 1439.01 389.15C1422.95 352.858 1395.39 290.566 1349.69 233.965C1349.19 232.963 1348.69 231.946 1348.17 230.913C1340.05 214.641 1329.93 194.356 1309.67 161.327C1308.79 159.901 1307.88 158.402 1306.92 156.835C1282.99 117.663 1233.21 36.1626 1159.53 6.02745C1137.22 2.02353 1053.14 -11.4182 1003.38 27.477C1002.57 27.7755 1001.73 28.0796 1000.84 28.397C990.725 32.033 975.723 37.4241 963.623 56.3625C959.238 57.2205 950.467 65.2283 950.467 79.528C945.224 74.2292 919.294 63.6317 899.145 63.6317C874.169 63.6317 848.598 73.7409 848.598 107.042C744.532 60.6584 495.368 52.3329 333.025 152.831C329.6 154.571 325.842 156.355 321.756 158.295C281.153 177.575 208.197 212.217 108.237 370.982C92.7039 391.174 77.171 434.666 39.7513 544.627C25.9126 576.016 -0.493302 665.33 0.185148 756.742C0.185148 757.809 0.18125 758.935 0.177159 760.118C0.101287 782.052 -0.0412483 823.257 23.3708 857.568C18.2657 844.38 11.5566 806.507 25.5608 760.523C27.2233 767.986 28.6409 777.152 30.2309 787.433C36.7183 829.381 46.0747 889.881 86.6364 928.857C93.5013 935.453 111.871 951.284 147.956 948.748C148.85 950.861 160.39 955.087 173.068 958.024C170.183 957.045 165.998 950.333 164.413 943.019C168.314 946.92 178.31 956.185 194.646 955.087C189.404 953.096 177.579 941.312 173.922 917.784C175.222 921.075 182.529 930.048 201.351 939.605C199.847 938.264 197.307 934.237 199.174 928.857C198.418 932.962 207.206 942.696 228.665 958.024C226.397 956.404 221.86 951.283 221.86 943.765C219.591 940.956 226.138 935.987 270.472 938.579C264.639 957.7 251.027 989.46 196.905 1029.97C203.09 1035.02 211.363 1040.86 220.614 1047.39C253.537 1070.64 298.835 1102.62 306.352 1138.6C306.958 1138.97 307.603 1139.36 308.279 1139.78C318.658 1146.12 336.577 1157.07 339.89 1175.84C362.429 1182.64 391.915 1260.66 403.841 1298.83C404.735 1302.03 410.594 1308.17 426.872 1307.1C434.876 1306.57 448.934 1298.33 466.559 1287.99C493.744 1272.06 529.415 1251.14 564.45 1245.88ZM396.135 927.795C388.752 928.194 365.689 917.336 353.238 868.487C348.704 870.109 336.37 876.098 323.299 887.078L335.879 875.314L303.692 890.509C311.208 885.28 327.841 872.112 334.246 861.263C323.443 861.263 318.164 862.75 306.932 865.914C304.233 866.674 301.192 867.531 297.647 868.487C307.45 864.881 329.311 855.119 338.33 844.924C332.557 844.488 317.123 841.264 301.568 831.853C310.228 834.304 331.174 838.781 345.683 837.082L348.211 833.899C350.717 833.253 353.366 832.582 356.147 831.878C396.623 821.623 465.216 804.244 530.965 755.07L510.593 776.032C517.876 774.162 536.692 767.352 553.698 755.07C543.168 765.305 516.38 788.786 493.469 800.832C495.831 855.451 438.555 923.356 378.621 940.185L396.135 927.795ZM351.871 1150.95C367.574 1143.75 403.733 1123.91 423.069 1102.15L424.659 1103.36C421.9 1107.68 412.671 1118.69 397.468 1128.83C395.185 1130.87 390.459 1133.99 383.154 1137.99C375.767 1142.04 365.682 1147.03 352.685 1152.78L352.465 1152.88L351.657 1151.05L351.871 1150.95Z" fill="#802B2B"/>
</svg>
